<svg width="24" height="24" viewBox="0 0 24 24" fill="none" xmlns="http://www.w3.org/2000/svg">
<path d="M18.9999 20.35V17C20.0813 16.9011 21.1093 16.4844 21.9542 15.8022C22.7991 15.12 23.4231 14.203 23.7477 13.1668C24.0723 12.1305 24.0828 11.0213 23.778 9.97908C23.4732 8.93682 22.8667 8.00812 22.0349 7.31001C22.5577 6.6464 22.883 5.84905 22.9738 5.00918C23.0647 4.16931 22.9172 3.32084 22.5484 2.56083C22.1796 1.80082 21.6043 1.15998 20.8883 0.711609C20.1724 0.263238 19.3447 0.0254517 18.4999 0.0254517C17.6552 0.0254517 16.8274 0.263238 16.1115 0.711609C15.3955 1.15998 14.8202 1.80082 14.4514 2.56083C14.0826 3.32084 13.9352 4.16931 14.026 5.00918C14.1168 5.84905 14.4422 6.6464 14.9649 7.31001C14.1331 8.00812 13.5266 8.93682 13.2218 9.97908C12.917 11.0213 12.9276 12.1305 13.2521 13.1668C13.5767 14.203 14.2008 15.12 15.0457 15.8022C15.8906 16.4844 16.9185 16.9011 17.9999 17V20C14.1039 18.7101 9.89593 18.7101 5.99992 20V17C7.08132 16.9011 8.10925 16.4844 8.95416 15.8022C9.79906 15.12 10.4231 14.203 10.7477 13.1668C11.0723 12.1305 11.0828 11.0213 10.778 9.97908C10.4732 8.93682 9.8667 8.00812 9.03492 7.31001C9.47824 6.74718 9.78077 6.08664 9.91734 5.38332C10.0539 4.68 10.0206 3.95423 9.8201 3.2664C9.61962 2.57856 9.25781 1.94853 8.76476 1.42871C8.2717 0.908898 7.66166 0.514323 6.98536 0.27781C6.30907 0.0412972 5.58608 -0.0303179 4.87653 0.068922C4.16698 0.168162 3.49138 0.435388 2.90593 0.848373C2.32048 1.26136 1.8421 1.80816 1.51058 2.4433C1.17906 3.07845 1.00399 3.78357 0.99992 4.50001C0.997074 5.51081 1.33729 6.49267 1.96492 7.28501C1.12459 7.98116 0.510325 8.91155 0.200289 9.95781C-0.109748 11.0041 -0.101547 12.1189 0.223849 13.1605C0.549244 14.2021 1.17713 15.1233 2.02761 15.807C2.8781 16.4908 3.91274 16.906 4.99992 17V20.35C3.27241 21.0322 1.65238 21.9601 0.18992 23.105C0.107336 23.1691 0.0469141 23.2575 0.0171519 23.3577C-0.0126104 23.4579 -0.0102165 23.5649 0.0239968 23.6637C0.0582101 23.7624 0.122522 23.848 0.20789 23.9083C0.293258 23.9687 0.395388 24.0007 0.49992 24H23.4999C23.6045 24.0007 23.7066 23.9687 23.792 23.9083C23.8773 23.848 23.9416 23.7624 23.9758 23.6637C24.0101 23.5649 24.0125 23.4579 23.9827 23.3577C23.9529 23.2575 23.8925 23.1691 23.8099 23.105C22.3475 21.9601 20.7274 21.0322 18.9999 20.35ZM13.9999 11.5C14.0018 10.7619 14.1853 10.0357 14.534 9.38521C14.8828 8.73474 15.3862 8.18005 15.9999 7.77001C16.0597 7.72689 16.1093 7.67106 16.145 7.60654C16.1807 7.54202 16.2017 7.4704 16.2065 7.3968C16.2113 7.32321 16.1997 7.24947 16.1726 7.18087C16.1456 7.11227 16.1037 7.05051 16.0499 7.00001C15.5534 6.51336 15.2131 5.88988 15.0724 5.20906C14.9317 4.52823 14.9969 3.82092 15.2597 3.17731C15.5225 2.53369 15.9711 1.98292 16.5482 1.59524C17.1252 1.20755 17.8047 1.00051 18.4999 1.00051C19.1951 1.00051 19.8746 1.20755 20.4517 1.59524C21.0288 1.98292 21.4773 2.53369 21.7402 3.17731C22.003 3.82092 22.0682 4.52823 21.9275 5.20906C21.7867 5.88988 21.4464 6.51336 20.9499 7.00001C20.8962 7.05051 20.8543 7.11227 20.8272 7.18087C20.8001 7.24947 20.7886 7.32321 20.7933 7.3968C20.7981 7.4704 20.8191 7.54202 20.8548 7.60654C20.8906 7.67106 20.9401 7.72689 20.9999 7.77001C21.6468 8.2022 22.1705 8.79469 22.52 9.48966C22.8696 10.1846 23.033 10.9584 22.9943 11.7353C22.9557 12.5123 22.7162 13.266 22.2994 13.9228C21.8826 14.5796 21.3026 15.1172 20.6161 15.483C19.9295 15.8489 19.1599 16.0305 18.3822 16.0101C17.6046 15.9898 16.8454 15.7682 16.179 15.3669C15.5125 14.9657 14.9614 14.3986 14.5795 13.7208C14.1976 13.0431 13.9979 12.2779 13.9999 11.5ZM0.99992 11.5C1.00183 10.7619 1.18526 10.0357 1.53404 9.38521C1.88281 8.73474 2.38623 8.18005 2.99992 7.77001C3.05975 7.72689 3.10929 7.67106 3.145 7.60654C3.18072 7.54202 3.20172 7.4704 3.2065 7.3968C3.21128 7.32321 3.19972 7.24947 3.17265 7.18087C3.14558 7.11227 3.10367 7.05051 3.04992 7.00001C2.55344 6.51336 2.21313 5.88988 2.07239 5.20906C1.93165 4.52823 1.99685 3.82092 2.25969 3.17731C2.52252 2.53369 2.97107 1.98292 3.54815 1.59524C4.12524 1.20755 4.8047 1.00051 5.49992 1.00051C6.19514 1.00051 6.8746 1.20755 7.45169 1.59524C8.02877 1.98292 8.47732 2.53369 8.74016 3.17731C9.00299 3.82092 9.06819 4.52823 8.92745 5.20906C8.78671 5.88988 8.4464 6.51336 7.94992 7.00001C7.89617 7.05051 7.85426 7.11227 7.82719 7.18087C7.80012 7.24947 7.78857 7.32321 7.79334 7.3968C7.79812 7.4704 7.81912 7.54202 7.85484 7.60654C7.89055 7.67106 7.9401 7.72689 7.99992 7.77001C8.64675 8.2022 9.1705 8.79469 9.52005 9.48966C9.86959 10.1846 10.033 10.9584 9.99434 11.7353C9.95568 12.5123 9.71625 13.266 9.29943 13.9228C8.88261 14.5796 8.30262 15.1172 7.61608 15.483C6.92954 15.8489 6.15988 16.0305 5.38222 16.0101C4.60455 15.9898 3.84544 15.7682 3.17897 15.3669C2.51249 14.9657 1.96141 14.3986 1.5795 13.7208C1.1976 13.0431 0.997907 12.2779 0.99992 11.5ZM2.05492 23C5.00891 21.0575 8.46699 20.0224 12.0024 20.0224C15.5379 20.0224 18.9959 21.0575 21.9499 23H2.05492Z" fill="#84BE51"/>
</svg>
